<mxfile host="www.draw.io" modified="2019-12-02T09:58:40.779Z" agent="Mozilla/5.0 (X11; Linux x86_64) AppleWebKit/537.36 (KHTML, like Gecko) Chrome/76.0.3809.100 Safari/537.36" etag="jN0A-HQIqMAWMvXhhP9L" version="12.2.8" type="github" pages="1">
  <diagram id="a8CwkPIcEuNQbc7R8hkZ" name="Page-1">
    <mxGraphModel dx="1557" dy="945" grid="1" gridSize="10" guides="1" tooltips="1" connect="1" arrows="1" fold="1" page="1" pageScale="1" pageWidth="1169" pageHeight="827" math="0" shadow="0">
      <root>
        <mxCell id="0"/>
        <mxCell id="1" parent="0"/>
        <mxCell id="OPVTETl_E9zXA-LBTriH-1" value="Docker Registries" style="text;html=1;strokeColor=none;fillColor=none;align=center;verticalAlign=middle;whiteSpace=wrap;rounded=0;" parent="1" vertex="1">
          <mxGeometry x="40" y="15" width="130" height="20" as="geometry"/>
        </mxCell>
        <mxCell id="OPVTETl_E9zXA-LBTriH-2" value="registry.redhat.io&lt;br&gt;hub.docker.com&lt;br&gt;..." style="rounded=1;whiteSpace=wrap;html=1;verticalAlign=top;arcSize=8;" parent="1" vertex="1">
          <mxGeometry x="40" y="53" width="280" height="290" as="geometry"/>
        </mxCell>
        <mxCell id="OPVTETl_E9zXA-LBTriH-3" value="mysql" style="rounded=1;whiteSpace=wrap;html=1;verticalAlign=top;" parent="1" vertex="1">
          <mxGeometry x="83" y="115" width="487" height="90" as="geometry"/>
        </mxCell>
        <mxCell id="OPVTETl_E9zXA-LBTriH-4" value="Repositories" style="text;html=1;strokeColor=none;fillColor=none;align=center;verticalAlign=middle;whiteSpace=wrap;rounded=0;" parent="1" vertex="1">
          <mxGeometry x="350" y="85" width="40" height="20" as="geometry"/>
        </mxCell>
        <mxCell id="OPVTETl_E9zXA-LBTriH-5" value="&lt;span style=&quot;color: rgb(37 , 37 , 37) ; font-family: &amp;#34;red hat text&amp;#34; , &amp;#34;overpass&amp;#34; , &amp;#34;helvetica&amp;#34; , sans-serif ; text-align: left ; background-color: rgb(255 , 255 , 255)&quot;&gt;&lt;font style=&quot;font-size: 12px&quot;&gt;redhat-openjdk-18/openjdk18-openshift&lt;/font&gt;&lt;/span&gt;" style="rounded=1;whiteSpace=wrap;html=1;verticalAlign=top;" parent="1" vertex="1">
          <mxGeometry x="83" y="217" width="495" height="95" as="geometry"/>
        </mxCell>
        <mxCell id="OPVTETl_E9zXA-LBTriH-6" value="&lt;span style=&quot;color: rgb(54 , 54 , 54) ; font-family: &amp;#34;open sans&amp;#34; , &amp;#34;helvetica&amp;#34; , &amp;#34;arial&amp;#34; , sans-serif ; background-color: rgb(255 , 255 , 255)&quot;&gt;docker-registry.default.svc:5000&lt;/span&gt;" style="rounded=1;whiteSpace=wrap;html=1;verticalAlign=top;arcSize=11;" parent="1" vertex="1">
          <mxGeometry x="40" y="623" width="280" height="125" as="geometry"/>
        </mxCell>
        <mxCell id="OPVTETl_E9zXA-LBTriH-8" value="sha256:0491ecfc011cdebbd6c9bc2f5cd8fd0bd43f6e9b96caae96fb404eb00381068d&lt;br&gt;&lt;br&gt;sha256:0491aaa011cfsdbbd6c9bc2f5cd8fd0bd43sfdfsfb96dfae96fb404eb00384389a" style="text;html=1;strokeColor=none;fillColor=none;align=center;verticalAlign=middle;whiteSpace=wrap;rounded=0;" parent="1" vertex="1">
          <mxGeometry x="89" y="140.5" width="462" height="55" as="geometry"/>
        </mxCell>
        <mxCell id="OPVTETl_E9zXA-LBTriH-9" value="Docker tags" style="text;html=1;strokeColor=none;fillColor=none;align=center;verticalAlign=middle;whiteSpace=wrap;rounded=0;" parent="1" vertex="1">
          <mxGeometry x="620" y="85" width="70" height="20" as="geometry"/>
        </mxCell>
        <mxCell id="OPVTETl_E9zXA-LBTriH-18" style="edgeStyle=orthogonalEdgeStyle;rounded=0;orthogonalLoop=1;jettySize=auto;html=1;exitX=0;exitY=0.5;exitDx=0;exitDy=0;entryX=1;entryY=0.75;entryDx=0;entryDy=0;" parent="1" source="OPVTETl_E9zXA-LBTriH-11" target="OPVTETl_E9zXA-LBTriH-8" edge="1">
          <mxGeometry relative="1" as="geometry"/>
        </mxCell>
        <mxCell id="OPVTETl_E9zXA-LBTriH-11" value="&lt;span style=&quot;color: rgb(37 , 37 , 37) ; font-family: &amp;#34;red hat text&amp;#34; , &amp;#34;overpass&amp;#34; , &amp;#34;helvetica&amp;#34; , sans-serif ; text-align: left ; background-color: rgb(255 , 255 , 255)&quot;&gt;&lt;font style=&quot;font-size: 12px&quot;&gt;3.2&lt;/font&gt;&lt;/span&gt;" style="rounded=1;whiteSpace=wrap;html=1;verticalAlign=top;" parent="1" vertex="1">
          <mxGeometry x="620" y="152" width="67" height="23" as="geometry"/>
        </mxCell>
        <mxCell id="OPVTETl_E9zXA-LBTriH-19" style="edgeStyle=orthogonalEdgeStyle;rounded=0;orthogonalLoop=1;jettySize=auto;html=1;exitX=0;exitY=0.5;exitDx=0;exitDy=0;" parent="1" source="OPVTETl_E9zXA-LBTriH-12" edge="1">
          <mxGeometry relative="1" as="geometry">
            <mxPoint x="550" y="185" as="targetPoint"/>
          </mxGeometry>
        </mxCell>
        <mxCell id="OPVTETl_E9zXA-LBTriH-12" value="&lt;span style=&quot;color: rgb(37 , 37 , 37) ; font-family: &amp;#34;red hat text&amp;#34; , &amp;#34;overpass&amp;#34; , &amp;#34;helvetica&amp;#34; , sans-serif ; text-align: left ; background-color: rgb(255 , 255 , 255)&quot;&gt;&lt;font style=&quot;font-size: 12px&quot;&gt;latest&lt;/font&gt;&lt;/span&gt;" style="rounded=1;whiteSpace=wrap;html=1;verticalAlign=top;" parent="1" vertex="1">
          <mxGeometry x="620" y="182" width="67" height="23" as="geometry"/>
        </mxCell>
        <mxCell id="OPVTETl_E9zXA-LBTriH-16" style="edgeStyle=orthogonalEdgeStyle;rounded=0;orthogonalLoop=1;jettySize=auto;html=1;exitX=0;exitY=0.5;exitDx=0;exitDy=0;entryX=1;entryY=0.25;entryDx=0;entryDy=0;" parent="1" source="OPVTETl_E9zXA-LBTriH-13" target="OPVTETl_E9zXA-LBTriH-8" edge="1">
          <mxGeometry relative="1" as="geometry"/>
        </mxCell>
        <mxCell id="OPVTETl_E9zXA-LBTriH-13" value="&lt;span style=&quot;color: rgb(37 , 37 , 37) ; font-family: &amp;#34;red hat text&amp;#34; , &amp;#34;overpass&amp;#34; , &amp;#34;helvetica&amp;#34; , sans-serif ; text-align: left ; background-color: rgb(255 , 255 , 255)&quot;&gt;&lt;font style=&quot;font-size: 12px&quot;&gt;3.1&lt;/font&gt;&lt;/span&gt;" style="rounded=1;whiteSpace=wrap;html=1;verticalAlign=top;" parent="1" vertex="1">
          <mxGeometry x="620" y="113.5" width="67" height="23" as="geometry"/>
        </mxCell>
        <mxCell id="OPVTETl_E9zXA-LBTriH-20" value="sha256:0491ecfc011cdebbd6c9bc2f5cd8fd0bd43f6e9b96caae96fb404eb00381068d&lt;br&gt;&lt;br&gt;sha256:0491aaa011cfsdbbd6c9bc2f5cd8fd0bd43sfdfsfb96dfae96fb404eb00384389a" style="text;html=1;strokeColor=none;fillColor=none;align=center;verticalAlign=middle;whiteSpace=wrap;rounded=0;" parent="1" vertex="1">
          <mxGeometry x="95.5" y="243" width="462" height="55" as="geometry"/>
        </mxCell>
        <mxCell id="OPVTETl_E9zXA-LBTriH-23" value="Terminology :&amp;nbsp;https://docs.openshift.com/container-platform/3.11/architecture/core_concepts/builds_and_image_streams.html#important-terms&lt;br&gt;Importing Images, tag and managing :&amp;nbsp;&lt;a href=&quot;https://docs.openshift.com/container-platform/3.6/dev_guide/managing_images.html#importing-tag-and-image-metadata&quot;&gt;https://docs.openshift.com/container-platform/3.6/dev_guide/managing_images.html#importing-tag-and-image-metadata&lt;/a&gt;&lt;br&gt;Blog on imageStreams deployment :&amp;nbsp;&lt;a href=&quot;http://v1.uncontained.io/playbooks/continuous_delivery/external-docker-registry-integration.html#deploying-an-image-using-an-imagestream&quot;&gt;http://v1.uncontained.io/playbooks/continuous_delivery/external-docker-registry-integration.html#deploying-an-image-using-an-imagestream&lt;/a&gt;" style="text;html=1;strokeColor=none;fillColor=none;align=left;verticalAlign=middle;whiteSpace=wrap;rounded=0;" parent="1" vertex="1">
          <mxGeometry x="40" y="760" width="970" height="50" as="geometry"/>
        </mxCell>
        <mxCell id="jOVMpsddEvDCXo4RuR2k-1" value="&lt;span style=&quot;color: rgb(54 , 54 , 54) ; font-family: &amp;#34;open sans&amp;#34; , &amp;#34;helvetica&amp;#34; , &amp;#34;arial&amp;#34; , sans-serif ; background-color: rgb(255 , 255 , 255)&quot;&gt;docker&lt;/span&gt;.artifactory-build.sofact.bdf.dns.eclair.local" style="rounded=1;whiteSpace=wrap;html=1;verticalAlign=top;arcSize=10;" vertex="1" parent="1">
          <mxGeometry x="40" y="353" width="280" height="260" as="geometry"/>
        </mxCell>
        <mxCell id="jOVMpsddEvDCXo4RuR2k-2" value="Public" style="text;html=1;strokeColor=none;fillColor=none;align=center;verticalAlign=middle;whiteSpace=wrap;rounded=0;rotation=-90;" vertex="1" parent="1">
          <mxGeometry x="-10" y="75" width="57" height="20" as="geometry"/>
        </mxCell>
        <mxCell id="jOVMpsddEvDCXo4RuR2k-3" value="Private / Enterprise" style="text;html=1;strokeColor=none;fillColor=none;align=center;verticalAlign=middle;whiteSpace=wrap;rounded=0;rotation=-90;" vertex="1" parent="1">
          <mxGeometry x="-45" y="408" width="127" height="20" as="geometry"/>
        </mxCell>
        <mxCell id="jOVMpsddEvDCXo4RuR2k-4" value="Openshift local" style="text;html=1;strokeColor=none;fillColor=none;align=center;verticalAlign=middle;whiteSpace=wrap;rounded=0;rotation=-90;" vertex="1" parent="1">
          <mxGeometry x="-38" y="676.5" width="127" height="20" as="geometry"/>
        </mxCell>
        <mxCell id="jOVMpsddEvDCXo4RuR2k-7" value="&lt;span style=&quot;color: rgb(37 , 37 , 37) ; font-family: &amp;#34;red hat text&amp;#34; , &amp;#34;overpass&amp;#34; , &amp;#34;helvetica&amp;#34; , sans-serif ; text-align: left ; background-color: rgb(255 , 255 , 255)&quot;&gt;&lt;font style=&quot;font-size: 12px&quot;&gt;redhat-openjdk-18/openjdk18-openshift&lt;/font&gt;&lt;/span&gt;" style="rounded=1;whiteSpace=wrap;html=1;verticalAlign=top;" vertex="1" parent="1">
          <mxGeometry x="79" y="388" width="495" height="95" as="geometry"/>
        </mxCell>
        <mxCell id="jOVMpsddEvDCXo4RuR2k-8" value="sha256:0491ecfc011cdebbd6c9bc2f5cd8fd0bd43f6e9b96caae96fb404eb00381068d&lt;br&gt;&lt;br&gt;sha256:0491aaa011cfsdbbd6c9bc2f5cd8fd0bd43sfdfsfb96dfae96fb404eb00384389a" style="text;html=1;strokeColor=none;fillColor=none;align=center;verticalAlign=middle;whiteSpace=wrap;rounded=0;" vertex="1" parent="1">
          <mxGeometry x="91.5" y="414" width="462" height="55" as="geometry"/>
        </mxCell>
        <mxCell id="jOVMpsddEvDCXo4RuR2k-9" value="&lt;span style=&quot;color: rgb(37 , 37 , 37) ; font-family: &amp;#34;red hat text&amp;#34; , &amp;#34;overpass&amp;#34; , &amp;#34;helvetica&amp;#34; , sans-serif ; text-align: left ; background-color: rgb(255 , 255 , 255)&quot;&gt;&lt;font style=&quot;font-size: 12px&quot;&gt;my-app/frontend&lt;/font&gt;&lt;/span&gt;" style="rounded=1;whiteSpace=wrap;html=1;verticalAlign=top;" vertex="1" parent="1">
          <mxGeometry x="79" y="504.5" width="495" height="95" as="geometry"/>
        </mxCell>
        <mxCell id="jOVMpsddEvDCXo4RuR2k-10" value="sha256:0491ebbbbbbbbbbbbbbbbbbbcd8fd0bd43f6e9b96caae96fb404eb00381068d&lt;br&gt;&lt;br&gt;sha256:0491aacccccccccccccccccccccd8fd0bd43sfdfsfb96dfae96fb404eb00384389a" style="text;html=1;strokeColor=none;fillColor=none;align=center;verticalAlign=middle;whiteSpace=wrap;rounded=0;" vertex="1" parent="1">
          <mxGeometry x="91.5" y="530.5" width="462" height="55" as="geometry"/>
        </mxCell>
        <mxCell id="jOVMpsddEvDCXo4RuR2k-21" value="&lt;span style=&quot;color: rgb(37 , 37 , 37) ; font-family: &amp;#34;red hat text&amp;#34; , &amp;#34;overpass&amp;#34; , &amp;#34;helvetica&amp;#34; , sans-serif ; text-align: left ; background-color: rgb(255 , 255 , 255)&quot;&gt;&lt;font style=&quot;font-size: 12px&quot;&gt;ImageStreams&lt;/font&gt;&lt;/span&gt;" style="rounded=1;whiteSpace=wrap;html=1;verticalAlign=top;" vertex="1" parent="1">
          <mxGeometry x="670" y="570" width="160" height="180" as="geometry"/>
        </mxCell>
        <mxCell id="jOVMpsddEvDCXo4RuR2k-25" value="&lt;span style=&quot;color: rgb(37 , 37 , 37) ; font-family: &amp;#34;red hat text&amp;#34; , &amp;#34;overpass&amp;#34; , &amp;#34;helvetica&amp;#34; , sans-serif ; text-align: left ; background-color: rgb(255 , 255 , 255)&quot;&gt;&lt;font style=&quot;font-size: 12px&quot;&gt;openjdk&lt;/font&gt;&lt;/span&gt;" style="rounded=1;whiteSpace=wrap;html=1;verticalAlign=top;" vertex="1" parent="1">
          <mxGeometry x="695" y="598" width="110" height="62" as="geometry"/>
        </mxCell>
        <mxCell id="jOVMpsddEvDCXo4RuR2k-26" value="&lt;span style=&quot;color: rgb(37 , 37 , 37) ; font-family: &amp;#34;red hat text&amp;#34; , &amp;#34;overpass&amp;#34; , &amp;#34;helvetica&amp;#34; , sans-serif ; text-align: left ; background-color: rgb(255 , 255 , 255)&quot;&gt;&lt;font style=&quot;font-size: 12px&quot;&gt;myapp-frontend&lt;/font&gt;&lt;/span&gt;" style="rounded=1;whiteSpace=wrap;html=1;verticalAlign=top;" vertex="1" parent="1">
          <mxGeometry x="695" y="668" width="110" height="72" as="geometry"/>
        </mxCell>
        <mxCell id="jOVMpsddEvDCXo4RuR2k-31" style="edgeStyle=orthogonalEdgeStyle;rounded=0;orthogonalLoop=1;jettySize=auto;html=1;exitX=0;exitY=0.5;exitDx=0;exitDy=0;entryX=1;entryY=0.25;entryDx=0;entryDy=0;" edge="1" parent="1" source="jOVMpsddEvDCXo4RuR2k-27" target="jOVMpsddEvDCXo4RuR2k-8">
          <mxGeometry relative="1" as="geometry"/>
        </mxCell>
        <mxCell id="jOVMpsddEvDCXo4RuR2k-27" value="&lt;span style=&quot;color: rgb(37 , 37 , 37) ; font-family: &amp;#34;red hat text&amp;#34; , &amp;#34;overpass&amp;#34; , &amp;#34;helvetica&amp;#34; , sans-serif ; text-align: left ; background-color: rgb(255 , 255 , 255)&quot;&gt;&lt;font style=&quot;font-size: 12px&quot;&gt;8.0&lt;/font&gt;&lt;/span&gt;" style="rounded=1;whiteSpace=wrap;html=1;verticalAlign=top;" vertex="1" parent="1">
          <mxGeometry x="750" y="629" width="67" height="23" as="geometry"/>
        </mxCell>
        <mxCell id="jOVMpsddEvDCXo4RuR2k-28" value="IS tags" style="text;html=1;strokeColor=none;fillColor=none;align=center;verticalAlign=middle;whiteSpace=wrap;rounded=0;" vertex="1" parent="1">
          <mxGeometry x="760" y="609" width="70" height="20" as="geometry"/>
        </mxCell>
        <mxCell id="jOVMpsddEvDCXo4RuR2k-32" style="edgeStyle=orthogonalEdgeStyle;rounded=0;orthogonalLoop=1;jettySize=auto;html=1;exitX=0;exitY=0.5;exitDx=0;exitDy=0;entryX=1;entryY=0.25;entryDx=0;entryDy=0;" edge="1" parent="1" source="jOVMpsddEvDCXo4RuR2k-29" target="jOVMpsddEvDCXo4RuR2k-10">
          <mxGeometry relative="1" as="geometry">
            <Array as="points">
              <mxPoint x="620" y="715"/>
              <mxPoint x="620" y="544"/>
            </Array>
          </mxGeometry>
        </mxCell>
        <mxCell id="jOVMpsddEvDCXo4RuR2k-29" value="&lt;div style=&quot;text-align: left&quot;&gt;&lt;font color=&quot;#252525&quot; face=&quot;red hat text, overpass, helvetica, sans-serif&quot;&gt;&lt;span style=&quot;background-color: rgb(255 , 255 , 255)&quot;&gt;current&lt;/span&gt;&lt;/font&gt;&lt;/div&gt;" style="rounded=1;whiteSpace=wrap;html=1;verticalAlign=top;" vertex="1" parent="1">
          <mxGeometry x="750" y="704" width="67" height="23" as="geometry"/>
        </mxCell>
        <mxCell id="jOVMpsddEvDCXo4RuR2k-30" value="IS tags" style="text;html=1;strokeColor=none;fillColor=none;align=center;verticalAlign=middle;whiteSpace=wrap;rounded=0;" vertex="1" parent="1">
          <mxGeometry x="760" y="684" width="70" height="20" as="geometry"/>
        </mxCell>
        <mxCell id="jOVMpsddEvDCXo4RuR2k-33" value="" style="group" vertex="1" connectable="0" parent="1">
          <mxGeometry x="800" y="130" width="320" height="154" as="geometry"/>
        </mxCell>
        <mxCell id="OPVTETl_E9zXA-LBTriH-22" value="&lt;span style=&quot;color: rgb(37 , 37 , 37) ; font-family: &amp;#34;red hat text&amp;#34; , &amp;#34;overpass&amp;#34; , &amp;#34;helvetica&amp;#34; , sans-serif ; background-color: rgb(255 , 255 , 255)&quot;&gt;&lt;font style=&quot;font-size: 12px&quot;&gt;BuildConfig&lt;br&gt;&lt;/font&gt;&lt;/span&gt;" style="rounded=1;whiteSpace=wrap;html=1;verticalAlign=top;align=center;" parent="jOVMpsddEvDCXo4RuR2k-33" vertex="1">
          <mxGeometry width="320" height="154" as="geometry"/>
        </mxCell>
        <mxCell id="jOVMpsddEvDCXo4RuR2k-12" value="my-java-app-builder&lt;br&gt;&lt;div&gt;&amp;nbsp; triggers:&lt;/div&gt;&lt;div&gt;&amp;nbsp; &amp;nbsp; - imageChange: {}&lt;/div&gt;&lt;div&gt;&amp;nbsp; &amp;nbsp; &amp;nbsp; type: ImageChange&lt;/div&gt;&lt;div&gt;&amp;nbsp; &amp;nbsp; - type: ConfigChange&lt;/div&gt;&lt;div&gt;&amp;nbsp; &amp;nbsp; - github:&lt;/div&gt;&lt;div&gt;&lt;span&gt;&amp;nbsp; &amp;nbsp; &amp;nbsp; type: GitHub&lt;/span&gt;&lt;br&gt;&lt;/div&gt;" style="text;html=1;strokeColor=none;fillColor=none;align=left;verticalAlign=middle;whiteSpace=wrap;rounded=0;" vertex="1" parent="jOVMpsddEvDCXo4RuR2k-33">
          <mxGeometry x="20" y="29" width="240" height="108" as="geometry"/>
        </mxCell>
        <mxCell id="jOVMpsddEvDCXo4RuR2k-35" value="" style="group" vertex="1" connectable="0" parent="1">
          <mxGeometry x="795" y="312" width="320" height="202" as="geometry"/>
        </mxCell>
        <mxCell id="OPVTETl_E9zXA-LBTriH-21" value="&lt;span style=&quot;color: rgb(37 , 37 , 37) ; font-family: &amp;#34;red hat text&amp;#34; , &amp;#34;overpass&amp;#34; , &amp;#34;helvetica&amp;#34; , sans-serif ; text-align: left ; background-color: rgb(255 , 255 , 255)&quot;&gt;&lt;font style=&quot;font-size: 12px&quot;&gt;DeploymentConfig&lt;/font&gt;&lt;/span&gt;" style="rounded=1;whiteSpace=wrap;html=1;verticalAlign=top;" parent="jOVMpsddEvDCXo4RuR2k-35" vertex="1">
          <mxGeometry width="320" height="202" as="geometry"/>
        </mxCell>
        <mxCell id="jOVMpsddEvDCXo4RuR2k-34" value="my-java-app-frontend&lt;br&gt;&lt;div&gt;&lt;div&gt;&amp;nbsp; triggers:&lt;/div&gt;&lt;div&gt;&amp;nbsp; &amp;nbsp; - imageChangeParams:&lt;/div&gt;&lt;div&gt;&lt;span&gt;&amp;nbsp; &amp;nbsp; &amp;nbsp; &amp;nbsp; containerNames:&lt;/span&gt;&lt;br&gt;&lt;/div&gt;&lt;div&gt;&amp;nbsp; &amp;nbsp; &amp;nbsp; &amp;nbsp; &amp;nbsp; - app-front&lt;/div&gt;&lt;div&gt;&amp;nbsp; &amp;nbsp; &amp;nbsp; &amp;nbsp; from:&lt;/div&gt;&lt;div&gt;&amp;nbsp; &amp;nbsp; &amp;nbsp; &amp;nbsp; &amp;nbsp; kind: ImageStreamTag&lt;/div&gt;&lt;div&gt;&amp;nbsp; &amp;nbsp; &amp;nbsp; &amp;nbsp; &amp;nbsp; name: &#39;myapp-frontend:current&#39;&lt;/div&gt;&lt;div&gt;&amp;nbsp; &amp;nbsp; &amp;nbsp; &amp;nbsp; &amp;nbsp; namespace: myapp&lt;/div&gt;&lt;div&gt;&amp;nbsp; &amp;nbsp; &amp;nbsp; type: ImageChange&lt;/div&gt;&lt;div&gt;&amp;nbsp; &amp;nbsp; - type: ConfigChange&lt;/div&gt;&lt;/div&gt;" style="text;html=1;strokeColor=none;fillColor=none;align=left;verticalAlign=middle;whiteSpace=wrap;rounded=0;" vertex="1" parent="jOVMpsddEvDCXo4RuR2k-35">
          <mxGeometry x="17" y="30" width="293" height="162" as="geometry"/>
        </mxCell>
        <mxCell id="jOVMpsddEvDCXo4RuR2k-36" style="edgeStyle=orthogonalEdgeStyle;rounded=0;orthogonalLoop=1;jettySize=auto;html=1;exitX=0;exitY=0.5;exitDx=0;exitDy=0;entryX=1;entryY=0.5;entryDx=0;entryDy=0;" edge="1" parent="1" source="jOVMpsddEvDCXo4RuR2k-12" target="jOVMpsddEvDCXo4RuR2k-27">
          <mxGeometry relative="1" as="geometry">
            <Array as="points">
              <mxPoint x="740" y="214"/>
              <mxPoint x="740" y="560"/>
              <mxPoint x="850" y="560"/>
              <mxPoint x="850" y="640"/>
            </Array>
          </mxGeometry>
        </mxCell>
        <mxCell id="jOVMpsddEvDCXo4RuR2k-37" style="edgeStyle=orthogonalEdgeStyle;rounded=0;orthogonalLoop=1;jettySize=auto;html=1;exitX=0;exitY=0.75;exitDx=0;exitDy=0;entryX=1;entryY=0.5;entryDx=0;entryDy=0;" edge="1" parent="1" source="jOVMpsddEvDCXo4RuR2k-34" target="jOVMpsddEvDCXo4RuR2k-29">
          <mxGeometry relative="1" as="geometry">
            <Array as="points">
              <mxPoint x="770" y="463"/>
              <mxPoint x="770" y="540"/>
              <mxPoint x="900" y="540"/>
              <mxPoint x="900" y="715"/>
            </Array>
          </mxGeometry>
        </mxCell>
      </root>
    </mxGraphModel>
  </diagram>
</mxfile>
